# xmcd
#
# Track frame offsets:
#	150
#	18025
#	28420
#	50310
#	59912
#	80618
#	89745
#	107133
#	118753
#	138762
#	148591
#	167714
#	179388
#	199374
#	208413
#	223743
#	232785
#	259508
#	270314
#	287076
#	298327
#
# Disc length: 4108 seconds
#
# Revision: 1
# Processed by: cddbd v1.5.2PL0 Copyright (c) Steve Scherf et al.
# Submitted via: EasyCDDAExtractor 6.0.0.1
#
DISCID=4c100a15
DTITLE=Fracc - Volume 1 et 2
DYEAR=2002
DGENRE=Folklore
TTITLE0=Têteux d'boss
TTITLE1=Gigue des chômeurs
TTITLE2=Ma prochaine blonde
TTITLE3=Polka Cadieux
TTITLE4=Spa Cher
TTITLE5=Gigue party chez Gérald Chevalier
TTITLE6=Cric crac timberjack
TTITLE7=Gigue de la germaine
TTITLE8=Double vé point Georgette
TTITLE9=Polka Verseau de Gatineau
TTITLE10=Café noir, cigarette
TTITLE11=Gigue à Dahdah
TTITLE12=Les danseuses
TTITLE13=Polka - Brian Stanton
TTITLE14=Vive le Viagra
TTITLE15=Valse du Pontiac
TTITLE16=Promesse d'ivrogne
TTITLE17=Gigue - Mme Lavoie
TTITLE18=Alice
TTITLE19=La galette de Louiseville
TTITLE20=Gigue le métis Reggie
EXTD=
EXTT0=
EXTT1=
EXTT2=
EXTT3=
EXTT4=
EXTT5=
EXTT6=
EXTT7=
EXTT8=
EXTT9=
EXTT10=
EXTT11=
EXTT12=
EXTT13=
EXTT14=
EXTT15=
EXTT16=
EXTT17=
EXTT18=
EXTT19=
EXTT20=
PLAYORDER=
